<svg xmlns="http://www.w3.org/2000/svg" xmlns:xlink="http://www.w3.org/1999/xlink" preserveAspectRatio="xMidYMid" width="24" height="75" viewBox="0 0 24 75">
  <defs>
    <style>
      .cls-1 {
        fill: #00e1a4;
        fill-rule: evenodd;
      }
    </style>
  </defs>
  <path d="M22.839,8.508 C22.209,8.508 21.677,7.968 21.677,7.330 L21.677,4.035 L12.844,12.993 C12.399,13.444 11.647,13.444 11.202,12.993 C10.757,12.542 10.757,11.779 11.202,11.327 L20.035,2.369 L16.786,2.369 C16.156,2.369 15.624,1.830 15.624,1.191 C15.624,0.553 16.156,0.014 16.786,0.014 L22.839,0.014 C22.988,0.014 23.134,0.044 23.273,0.103 L23.297,0.113 C23.434,0.171 23.556,0.254 23.660,0.359 C23.763,0.464 23.845,0.588 23.902,0.727 L23.913,0.751 C23.970,0.893 24.000,1.041 24.000,1.191 L24.000,7.330 C24.000,7.968 23.468,8.508 22.839,8.508 ZM11.581,2.369 L6.525,2.369 C6.384,2.369 6.238,2.367 6.097,2.365 C5.721,2.359 5.333,2.353 4.949,2.386 L4.919,2.390 C4.667,2.438 4.417,2.506 4.177,2.595 L4.162,2.601 L4.148,2.607 C3.925,2.716 3.708,2.845 3.505,2.988 L3.481,3.007 C3.292,3.170 3.114,3.350 2.953,3.542 L2.935,3.566 C2.793,3.773 2.667,3.992 2.559,4.219 L2.553,4.233 L2.547,4.248 C2.461,4.487 2.394,4.737 2.348,4.988 L2.345,5.005 L2.343,5.022 C2.323,5.281 2.324,5.538 2.324,5.787 C2.325,5.832 2.325,5.877 2.325,5.922 L2.325,18.311 C2.325,18.378 2.324,18.446 2.324,18.514 C2.322,18.783 2.321,19.062 2.343,19.342 L2.344,19.359 L2.347,19.375 C2.394,19.627 2.461,19.877 2.547,20.117 L2.553,20.132 L2.559,20.146 C2.667,20.373 2.793,20.593 2.935,20.799 L2.953,20.823 C3.114,21.015 3.292,21.195 3.481,21.358 L3.505,21.377 C3.708,21.521 3.925,21.649 4.148,21.758 L4.177,21.770 C4.413,21.857 4.658,21.925 4.907,21.972 L4.923,21.975 L4.940,21.977 C5.195,21.997 5.449,21.997 5.694,21.996 C5.739,21.996 5.784,21.996 5.828,21.996 L18.043,21.996 C18.110,21.996 18.177,21.996 18.244,21.997 C18.510,21.998 18.785,22.000 19.061,21.977 L19.077,21.976 L19.094,21.973 C19.342,21.926 19.588,21.857 19.825,21.770 L19.854,21.758 C20.077,21.649 20.294,21.521 20.497,21.377 L20.521,21.358 C20.710,21.195 20.887,21.015 21.048,20.823 L21.067,20.799 C21.209,20.593 21.335,20.373 21.442,20.146 L21.449,20.132 L21.455,20.117 C21.541,19.878 21.608,19.629 21.654,19.378 L21.657,19.361 L21.658,19.344 C21.678,19.095 21.678,18.848 21.677,18.609 L21.677,12.608 C21.677,11.969 22.209,11.430 22.839,11.430 C23.468,11.430 24.000,11.969 24.000,12.608 L24.000,18.936 C24.000,19.244 23.966,19.584 23.892,20.008 C23.821,20.414 23.680,20.793 23.489,21.239 C23.362,21.536 23.207,21.807 23.030,22.044 C22.758,22.408 22.508,22.731 22.198,22.993 C21.467,23.612 20.741,24.003 19.980,24.187 C19.381,24.331 18.770,24.351 18.198,24.351 L5.986,24.351 C5.903,24.351 5.819,24.352 5.735,24.353 C5.458,24.356 5.172,24.359 4.905,24.328 C4.464,24.276 4.035,24.217 3.631,24.067 C3.295,23.942 2.861,23.766 2.487,23.516 C1.746,23.021 1.161,22.413 0.749,21.707 C0.253,20.858 0.002,19.875 0.002,18.783 L0.002,5.459 C0.002,4.076 0.511,2.753 1.436,1.732 C2.410,0.656 3.875,0.014 5.354,0.014 L11.581,0.014 C12.211,0.014 12.743,0.553 12.743,1.191 C12.743,1.830 12.211,2.369 11.581,2.369 Z" class="cls-1"/>
  <path d="M22.839,59.508 C22.209,59.508 21.677,58.968 21.677,58.330 L21.677,55.035 L12.844,63.993 C12.399,64.444 11.647,64.444 11.202,63.993 C10.757,63.542 10.757,62.779 11.202,62.327 L20.035,53.369 L16.786,53.369 C16.156,53.369 15.624,52.830 15.624,52.191 C15.624,51.553 16.156,51.014 16.786,51.014 L22.839,51.014 C22.988,51.014 23.134,51.044 23.273,51.103 L23.297,51.113 C23.434,51.171 23.556,51.254 23.660,51.359 C23.763,51.464 23.845,51.588 23.902,51.727 L23.913,51.751 C23.970,51.893 24.000,52.041 24.000,52.191 L24.000,58.330 C24.000,58.968 23.468,59.508 22.839,59.508 ZM11.581,53.369 L6.525,53.369 C6.384,53.369 6.238,53.367 6.097,53.365 C5.721,53.359 5.333,53.353 4.949,53.386 L4.919,53.390 C4.667,53.438 4.417,53.506 4.177,53.595 L4.162,53.601 L4.148,53.607 C3.925,53.716 3.708,53.845 3.505,53.988 L3.481,54.007 C3.292,54.170 3.114,54.350 2.953,54.542 L2.935,54.566 C2.793,54.773 2.667,54.992 2.559,55.219 L2.553,55.233 L2.547,55.248 C2.461,55.487 2.394,55.737 2.348,55.988 L2.345,56.005 L2.343,56.022 C2.323,56.281 2.324,56.538 2.324,56.787 C2.325,56.832 2.325,56.877 2.325,56.922 L2.325,69.311 C2.325,69.378 2.324,69.446 2.324,69.514 C2.322,69.783 2.321,70.062 2.343,70.342 L2.344,70.359 L2.347,70.375 C2.394,70.627 2.461,70.877 2.547,71.117 L2.553,71.132 L2.559,71.146 C2.667,71.373 2.793,71.593 2.935,71.799 L2.953,71.823 C3.114,72.015 3.292,72.195 3.481,72.358 L3.505,72.377 C3.708,72.521 3.925,72.649 4.148,72.758 L4.177,72.770 C4.413,72.857 4.658,72.925 4.907,72.972 L4.923,72.975 L4.940,72.977 C5.195,72.997 5.449,72.997 5.694,72.996 C5.739,72.996 5.784,72.996 5.828,72.996 L18.043,72.996 C18.110,72.996 18.177,72.996 18.244,72.997 C18.510,72.998 18.785,73.000 19.061,72.977 L19.077,72.976 L19.094,72.973 C19.342,72.926 19.588,72.857 19.825,72.770 L19.854,72.758 C20.077,72.649 20.294,72.521 20.497,72.377 L20.521,72.358 C20.710,72.195 20.887,72.015 21.048,71.823 L21.067,71.799 C21.209,71.593 21.335,71.373 21.442,71.146 L21.449,71.132 L21.455,71.117 C21.541,70.878 21.608,70.629 21.654,70.378 L21.657,70.361 L21.658,70.344 C21.678,70.095 21.678,69.848 21.677,69.609 L21.677,63.608 C21.677,62.969 22.209,62.430 22.839,62.430 C23.468,62.430 24.000,62.969 24.000,63.608 L24.000,69.936 C24.000,70.244 23.966,70.584 23.892,71.008 C23.821,71.414 23.680,71.793 23.489,72.239 C23.362,72.536 23.207,72.807 23.030,73.044 C22.758,73.408 22.508,73.731 22.198,73.993 C21.467,74.612 20.741,75.003 19.980,75.187 C19.381,75.331 18.770,75.351 18.198,75.351 L5.986,75.351 C5.903,75.351 5.819,75.352 5.735,75.353 C5.458,75.356 5.172,75.359 4.905,75.328 C4.464,75.276 4.035,75.217 3.631,75.067 C3.295,74.942 2.861,74.766 2.487,74.516 C1.746,74.021 1.161,73.413 0.749,72.707 C0.253,71.858 0.002,70.875 0.002,69.783 L0.002,56.459 C0.002,55.076 0.511,53.753 1.436,52.732 C2.410,51.656 3.875,51.014 5.354,51.014 L11.581,51.014 C12.211,51.014 12.743,51.553 12.743,52.191 C12.743,52.830 12.211,53.369 11.581,53.369 Z" class="cls-1"/>
</svg>
