<?xml version="1.0" encoding="utf-8"?>
<!-- Generator: Adobe Illustrator 19.0.0, SVG Export Plug-In . SVG Version: 6.00 Build 0)  -->
<svg version="1.1" id="Слой_1" xmlns="http://www.w3.org/2000/svg" xmlns:xlink="http://www.w3.org/1999/xlink" x="0px" y="0px"
	 viewBox="0 0 95.873 45.661" style="enable-background:new 0 0 95.873 45.661;" xml:space="preserve">
<style type="text/css">
	.st0{fill-rule:evenodd;clip-rule:evenodd;fill:#FFFFFF;}
</style>
<g id="XMLID_90_">
	<path id="XMLID_111_" class="st0" d="M22.831,0C10.222,0,0,10.222,0,22.83c0,12.609,10.222,22.831,22.831,22.831
		S45.661,35.439,45.661,22.83C45.661,10.222,35.44,0,22.831,0z M29.371,28.6v2h-5.587h-1.413v-18h1v16H29.371z M22.831,41.943
		c-10.555,0-19.112-8.557-19.112-19.112c0-10.555,8.557-19.112,19.112-19.112c0.279,0,0.556,0.006,0.831,0.018l-0.002,1.74
		c-0.275-0.013-0.552-0.019-0.829-0.019c-9.595,0-17.373,7.778-17.373,17.373c0,9.595,7.778,17.373,17.373,17.373
		c9.333,0,16.947-7.84,17.356-17.072l0.004-0.532h-10.82v-2h12.545c0.018,0,0.027,1.283,0.027,1.626
		C41.943,32.781,33.386,41.943,22.831,41.943z"/>
	<path id="XMLID_104_" class="st0" d="M15.702,18.286c1.483,0,2.685-1.202,2.685-2.685c0-1.483-1.202-2.685-2.685-2.685
		c-1.483,0-2.685,1.202-2.685,2.685C13.016,17.084,14.218,18.286,15.702,18.286L15.702,18.286z"/>
	<polygon id="XMLID_103_" class="st0" points="56.998,34.037 73.311,34.037 73.311,29.11 63.465,29.11 62.989,29.11 62.989,28.633 
		62.989,11.467 56.998,11.467 56.998,34.037 	"/>
	<path id="XMLID_102_" class="st0" d="M93.023,13.057c-1.871-1.449-4.279-2.184-7.153-2.184c-3.413,0-6.264,1.048-8.246,3.029
		c-2.07,2.07-3.165,5.12-3.165,8.819c0,3.952,1.158,7.287,3.261,9.389c1.649,1.649,3.851,2.522,6.367,2.522
		c5.525,0,6.796-3.312,6.796-3.312v1.522v1.196h4.989V21.29h-9.932v3.988h3.996h0.576c0,0,0.044,5.021-4.674,5.021
		c-1.199,0-2.267-0.434-3.089-1.257c-1.28-1.279-1.956-3.433-1.956-6.228c0-4.628,1.839-7.391,4.919-7.391
		c1.924,0,3.37,1.181,3.74,2.972h6.355C95.478,15.795,94.765,14.439,93.023,13.057L93.023,13.057z"/>
</g>
</svg>
