<?xml version="1.0" encoding="utf-8"?>
<!-- Generator: Adobe Illustrator 19.0.0, SVG Export Plug-In . SVG Version: 6.00 Build 0)  -->
<svg version="1.1" id="Слой_1" xmlns="http://www.w3.org/2000/svg" xmlns:xlink="http://www.w3.org/1999/xlink" x="0px" y="0px"
	 viewBox="0 0 57.478 66.874" style="enable-background:new 0 0 57.478 66.874;" xml:space="preserve">
<style type="text/css">
	.st0{fill:#FFFFFF;}
</style>
<g id="XMLID_76_">
	<line id="XMLID_101_" class="st0" x1="44.022" y1="14.497" x2="44.022" y2="14.497"/>
	<line id="XMLID_100_" class="st0" x1="42.452" y1="18.491" x2="42.452" y2="18.491"/>
	<path id="XMLID_96_" class="st0" d="M48.78,23.383c0.673-3.77-1.84-6.732-4.758-8.887c-4.084-3.007-8.707-4.802-13.465-6.194
		v49.729c2.11-1.84,4.219-3.905,6.239-6.014c4.309-4.757,8.303-9.605,9.964-15.439c0.673-2.648,0.314-5.655-1.93-7.45
		C46.76,27.602,48.511,25.717,48.78,23.383z M40.567,40.573c-1.481,2.693-3.501,5.161-5.88,7.45l-0.045-14.228
		c1.616-1.167,3.276-2.199,5.296-2.379c0.808,0,1.526,0.269,2.064,0.898C43.798,35.142,41.689,38.105,40.567,40.573z M44.651,22.261
		c-0.404,2.244-2.873,3.546-4.623,4.488c-1.75,0.898-3.546,1.616-5.386,2.289V14.497c2.828,0.853,5.386,2.289,7.809,3.995
		C43.574,19.434,45.1,20.601,44.651,22.261z"/>
	<line id="XMLID_95_" class="st0" x1="42.003" y1="32.315" x2="42.003" y2="32.315"/>
	<path id="XMLID_94_" class="st0" d="M26.878,57.673V8.124l-3.994,2.065v26.57c-0.18,0.763,0.359,1.93-0.494,2.289
		c-0.224,0.045-0.404-0.045-0.494-0.224c-1.706-6.418-2.424-13.195-2.738-20.152l-0.135-6.059l-3.815,2.828v1.616
		c0.224,6.418,0.673,12.702,1.885,18.716l-1.526,1.706c-0.583-0.808-0.943-1.661-1.346-2.514c-1.93-5.117-2.648-10.727-2.917-16.516
		l-3.321,2.468c0.314,8.797,1.975,17.1,7.316,23.697c1.032-1.167,2.065-2.379,3.097-3.501c0.539,2.379,1.301,4.668,2.199,6.912
		C22.075,51.479,23.736,54.98,26.878,57.673"/>
	<path id="XMLID_91_" class="st0" d="M57.442,14.631l-5.969-1.481l-1.077-4.039l-6.104-1.436l-1.257-4.398L28.628,0L14.49,3.276
		l-1.257,4.398L7.13,9.111c-0.404,1.391-0.763,2.738-1.122,4.084l-5.969,1.436c-0.449,12.702,3.052,23.877,9.38,33.841
		c4.623,7.136,11.58,14.676,19.209,18.402c5.161-2.469,9.739-6.598,13.868-11.22C52.505,44.074,57.981,30.519,57.442,14.631z
		 M39.849,53.05c-3.276,3.68-6.957,7.316-11.086,9.425c-3.949-1.975-7.405-5.386-10.547-8.842
		C10.047,44.074,4.616,33.392,3.719,20.87c-0.09-1.032-0.135-2.02-0.09-3.097l5.072-1.167l1.167-4.174l6.239-1.481l0.045-0.135
		l1.122-4.309l11.31-2.648l11.669,2.648l1.122,4.399l6.329,1.526l1.077,4.174l5.117,1.167C53.762,31.417,48.331,42.862,39.849,53.05
		z"/>
</g>
</svg>
